<svg xmlns="http://www.w3.org/2000/svg" version="1.1" xmlns:xlink="http://www.w3.org/1999/xlink" xmlns:svgjs="http://svgjs.dev/svgjs" width="1500" height="1500" viewBox="0 0 1500 1500"><rect width="1500" height="1500" fill="#ffffff"></rect><g transform="matrix(0.6666666666666666,0,0,0.6666666666666666,249.39393939393938,435.99032258064517)"><svg viewBox="0 0 396 248" data-background-color="#000000" preserveAspectRatio="xMidYMid meet" height="939" width="1500" xmlns="http://www.w3.org/2000/svg" xmlns:xlink="http://www.w3.org/1999/xlink"><g id="tight-bounds" transform="matrix(1,0,0,1,0.2400000000000091,0.4000000000000057)"><svg viewBox="0 0 395.52 247.2" height="247.2" width="395.52"><g><svg></svg></g><g><svg viewBox="0 0 395.52 247.2" height="247.2" width="395.52"><mask id="2f4dc521-da3f-438e-ad1b-95b8c892b2cc"><rect width="395.52" height="247.2" fill="white"></rect><g transform="matrix(1,0,0,1,2.842170943040401e-14,73.23250874403814)" id="clone"><svg viewBox="0 0 395.5199999999999 100.73498251192369" height="100.73498251192369" width="395.5199999999999"><g><svg viewBox="0 0 395.5199999999999 100.73498251192369" height="100.73498251192369" width="395.5199999999999"><g><svg viewBox="0 0 395.5199999999999 100.73498251192369" height="100.73498251192369" width="395.5199999999999"><g><svg viewBox="0 0 395.5199999999999 100.73498251192369" height="100.73498251192369" width="395.5199999999999"><g id="SvgjsG5435"><svg viewBox="0 0 395.5199999999999 100.73498251192369" height="100.73498251192369" width="395.5199999999999" id="SvgjsSvg5434"><g><svg viewBox="0 0 395.5199999999999 100.73498251192369" height="100.73498251192369" width="395.5199999999999"><g transform="matrix(1,0,0,1,0,0)"><svg width="395.5199999999999" viewBox="-0.75 -38.05 158.24 41.05" height="100.73498251192369" data-palette-color="#9296c9"><path d="M26.75 0L2.25-12.4 2.25-16.6 26.75-28.6 26.75-24.85 5.85-14.65 5.85-14.35 26.75-3.75 26.75 0ZM33.5 0L33.5-35 56.1-35 56.1-31.6 37.3-31.6 37.3-19.3 54.65-19.3 54.65-15.9 37.3-15.9 37.3-3.4 56.1-3.4 56.1 0 33.5 0ZM62.59 0L62.59-35 82.8-35 88.3-29.5 88.3-5.5 82.8 0 62.59 0ZM66.39-3.4L81.09-3.4 84.5-6.75 84.5-28.25 81.09-31.6 66.39-31.6 66.39-3.4ZM103.99 0L123.34-35.05 127.24-35.05 107.89 0 103.99 0ZM129.99 0L129.99-3.75 150.89-14.35 150.89-14.65 129.99-24.85 129.99-28.6 154.49-16.6 154.49-12.4 129.99 0Z" opacity="1" transform="matrix(1,0,0,1,0,0)" fill="black" class="wordmark-text-0" id="SvgjsPath5433" stroke-width="5" stroke="black" stroke-linejoin="round"></path></svg></g></svg></g></svg></g></svg></g></svg></g></svg></g></svg></g></mask><g mask="url(#2f4dc521-da3f-438e-ad1b-95b8c892b2cc)"><g><path d="M173.781 247.2l-172.794-87.454v-29.622l172.794-84.634v26.448l-147.404 71.939v2.116l147.404 74.759zM230.555 247.2l136.472-247.2h27.506l-136.472 247.2z" fill="#000000" fill-rule="nonzero" stroke="none" stroke-width="1" stroke-linecap="butt" stroke-linejoin="miter" stroke-miterlimit="10" stroke-dasharray="" stroke-dashoffset="0" font-family="none" font-weight="none" font-size="none" text-anchor="none" style="mix-blend-mode: normal" data-fill-palette-color="tertiary"></path></g></g><g transform="matrix(1,0,0,1,2.842170943040401e-14,73.23250874403814)"><svg viewBox="0 0 395.5199999999999 100.73498251192369" height="100.73498251192369" width="395.5199999999999"><g><svg viewBox="0 0 395.5199999999999 100.73498251192369" height="100.73498251192369" width="395.5199999999999"><g><svg viewBox="0 0 395.5199999999999 100.73498251192369" height="100.73498251192369" width="395.5199999999999"><g><svg viewBox="0 0 395.5199999999999 100.73498251192369" height="100.73498251192369" width="395.5199999999999"><g id="textblocktransform"><svg viewBox="0 0 395.5199999999999 100.73498251192369" height="100.73498251192369" width="395.5199999999999" id="textblock"><g><svg viewBox="0 0 395.5199999999999 100.73498251192369" height="100.73498251192369" width="395.5199999999999"><g transform="matrix(1,0,0,1,0,0)"><svg width="395.5199999999999" viewBox="-0.75 -38.05 158.24 41.05" height="100.73498251192369" data-palette-color="#9296c9"><path d="M26.75 0L2.25-12.4 2.25-16.6 26.75-28.6 26.75-24.85 5.85-14.65 5.85-14.35 26.75-3.75 26.75 0ZM33.5 0L33.5-35 56.1-35 56.1-31.6 37.3-31.6 37.3-19.3 54.65-19.3 54.65-15.9 37.3-15.9 37.3-3.4 56.1-3.4 56.1 0 33.5 0ZM62.59 0L62.59-35 82.8-35 88.3-29.5 88.3-5.5 82.8 0 62.59 0ZM66.39-3.4L81.09-3.4 84.5-6.75 84.5-28.25 81.09-31.6 66.39-31.6 66.39-3.4ZM103.99 0L123.34-35.05 127.24-35.05 107.89 0 103.99 0ZM129.99 0L129.99-3.75 150.89-14.35 150.89-14.65 129.99-24.85 129.99-28.6 154.49-16.6 154.49-12.4 129.99 0Z" opacity="1" transform="matrix(1,0,0,1,0,0)" fill="#000000" class="wordmark-text-0" data-fill-palette-color="primary" id="text-0"></path></svg></g></svg></g></svg></g></svg></g></svg></g></svg></g></svg></g></svg></g><defs></defs></svg><rect width="395.52" height="247.2" fill="none" stroke="none" visibility="hidden"></rect></g></svg></g></svg>